<svg width="1440" height="642" viewBox="0 0 1440 642" fill="none" xmlns="http://www.w3.org/2000/svg">
<g opacity="0.8" clip-path="url(#clip0)">
<g clip-path="url(#clip1)">
<path d="M314.847 131.135L106.162 36.0325C91.7554 29.467 74.7542 35.8235 68.1887 50.2301L20.6372 154.572C14.0717 168.979 20.4282 185.98 34.8349 192.546L243.519 287.649C257.926 294.214 274.927 287.858 281.493 273.451L329.044 169.109C335.61 154.702 329.253 137.701 314.847 131.135Z" stroke="#E6F0FF" stroke-width="10" stroke-linecap="round" stroke-linejoin="round"/>
<path d="M134.557 111.979L110.782 164.15M96.5839 126.177L148.755 149.953L96.5839 126.177Z" stroke="#E6F0FF" stroke-width="10" stroke-linecap="round" stroke-linejoin="round"/>
<path d="M219.913 166.63L219.854 166.758" stroke="#E6F0FF" stroke-width="10" stroke-linecap="round" stroke-linejoin="round"/>
<path d="M247.153 210.547L247.095 210.676" stroke="#E6F0FF" stroke-width="10" stroke-linecap="round" stroke-linejoin="round"/>
</g>
<path d="M451.406 441.721C465.066 437.933 473.068 423.788 469.28 410.129C465.492 396.469 451.348 388.466 437.688 392.254C424.028 396.043 416.026 410.187 419.814 423.847C423.602 437.507 437.746 445.509 451.406 441.721Z" stroke="#E6F0FF" stroke-width="8" stroke-linecap="round" stroke-linejoin="round"/>
<path d="M569.201 482.301L585.492 541.042C585.954 542.393 586.102 543.832 585.926 545.25C585.652 547.468 584.566 549.505 582.878 550.969L524.18 601.607C517.006 607.797 508.55 612.32 499.42 614.853C490.289 617.385 480.711 617.862 471.374 616.252L394.98 603.078C393.176 602.765 391.51 601.912 390.202 600.631C388.893 599.351 388.004 597.704 387.651 595.908L371.336 537.174" stroke="#E6F0FF" stroke-width="8" stroke-linecap="round" stroke-linejoin="round"/>
<path d="M375.692 532.183L437.367 484.022C450.935 473.438 468.145 468.665 485.226 470.75L562.897 480.267C564.616 480.469 566.237 481.17 567.563 482.281C568.889 483.393 569.861 484.868 570.36 486.525C570.86 488.181 570.864 489.948 570.373 491.607C569.881 493.266 568.916 494.746 567.596 495.864L508.771 546.044C501.566 552.183 493.108 556.675 483.987 559.204C474.866 561.734 465.303 562.24 455.965 560.689L379.698 547.973C377.983 547.702 376.386 546.935 375.103 545.766C373.821 544.596 372.91 543.076 372.483 541.394C372.056 539.711 372.132 537.941 372.702 536.301C373.272 534.662 374.31 533.226 375.688 532.171L375.692 532.183Z" stroke="#E6F0FF" stroke-width="8" stroke-linecap="round" stroke-linejoin="round"/>
<path d="M451.406 441.721L471.983 515.92" stroke="#E6F0FF" stroke-width="8" stroke-linecap="round" stroke-linejoin="round"/>
<g clip-path="url(#clip2)">
<path d="M841.297 477.797C871.56 484.813 901.781 465.967 908.797 435.704C915.813 405.44 896.967 375.22 866.704 368.204C836.44 361.188 806.22 380.033 799.204 410.297C792.188 440.56 811.033 470.781 841.297 477.797Z" stroke="#E6F0FF" stroke-width="8" stroke-linecap="round" stroke-linejoin="round"/>
<path d="M849.766 441.266C859.854 443.605 869.927 437.323 872.266 427.235C874.605 417.147 868.323 407.073 858.235 404.735C848.147 402.396 838.073 408.678 835.735 418.766C833.396 428.854 839.678 438.927 849.766 441.266Z" stroke="#E6F0FF" stroke-width="8" stroke-linecap="round" stroke-linejoin="round"/>
<path d="M872.266 427.235L908.797 435.704M799.204 410.297L835.735 418.766L799.204 410.297Z" stroke="#E6F0FF" stroke-width="8" stroke-linecap="round" stroke-linejoin="round"/>
</g>
<g clip-path="url(#clip3)">
<path d="M1083.3 73.5867L1001.98 92.5476C994.494 94.2929 989.841 101.776 991.587 109.261L1010.55 190.58C1012.29 198.065 1019.78 202.718 1027.26 200.973L1108.58 182.012C1116.06 180.266 1120.72 172.784 1118.97 165.298L1100.01 83.9797C1098.27 76.4945 1090.78 71.8414 1083.3 73.5867Z" stroke="#E6F0FF" stroke-width="8" stroke-linecap="round" stroke-linejoin="round"/>
<path d="M1026.82 122.48C1028.69 122.044 1029.86 120.173 1029.42 118.302C1028.98 116.431 1027.11 115.267 1025.24 115.704C1023.37 116.14 1022.21 118.011 1022.64 119.882C1023.08 121.753 1024.95 122.917 1026.82 122.48Z" fill="#E6F0FF" stroke="#E6F0FF" stroke-width="8" stroke-linecap="round" stroke-linejoin="round"/>
<path d="M1074.26 111.42C1076.13 110.983 1077.29 109.113 1076.86 107.241C1076.42 105.37 1074.55 104.207 1072.68 104.643C1070.81 105.079 1069.64 106.95 1070.08 108.821C1070.52 110.693 1072.39 111.856 1074.26 111.42Z" fill="#E6F0FF" stroke="#E6F0FF" stroke-width="8" stroke-linecap="round" stroke-linejoin="round"/>
<path d="M1085.32 158.856C1087.19 158.419 1088.35 156.549 1087.92 154.677C1087.48 152.806 1085.61 151.643 1083.74 152.079C1081.87 152.515 1080.7 154.386 1081.14 156.257C1081.58 158.129 1083.45 159.292 1085.32 158.856Z" fill="#E6F0FF" stroke="#E6F0FF" stroke-width="8" stroke-linecap="round" stroke-linejoin="round"/>
<path d="M1037.88 169.916C1039.75 169.48 1040.92 167.609 1040.48 165.738C1040.04 163.866 1038.17 162.703 1036.3 163.14C1034.43 163.576 1033.27 165.447 1033.7 167.318C1034.14 169.189 1036.01 170.352 1037.88 169.916Z" fill="#E6F0FF" stroke="#E6F0FF" stroke-width="8" stroke-linecap="round" stroke-linejoin="round"/>
</g>
<path d="M458.233 164.02L468.02 81.767C468.792 75.2775 464.157 69.3906 457.668 68.6184L398.916 61.6276C392.426 60.8554 386.539 65.4902 385.767 71.9798L375.98 154.233C375.208 160.723 379.843 166.609 386.332 167.382L445.084 174.372C451.574 175.145 457.461 170.51 458.233 164.02Z" stroke="#E6F0FF" stroke-width="5" stroke-linecap="round" stroke-linejoin="round"/>
<path d="M402.694 79.9523L402.752 79.9593" stroke="#E6F0FF" stroke-width="5" stroke-linecap="round" stroke-linejoin="round"/>
<path d="M441.306 156.048L441.365 156.055" stroke="#E6F0FF" stroke-width="5" stroke-linecap="round" stroke-linejoin="round"/>
<path d="M419.204 141.501L404.374 115.903L424.796 94.4991L439.626 120.097L419.204 141.501Z" stroke="#E6F0FF" stroke-width="5" stroke-linecap="round" stroke-linejoin="round"/>
<g clip-path="url(#clip4)">
<path d="M1321.54 159.467L1301.76 145.872C1300.45 144.971 1299.55 143.585 1299.26 142.021C1298.97 140.456 1299.32 138.84 1300.22 137.529L1313.81 117.751C1314.71 116.439 1316.1 115.54 1317.66 115.25C1319.23 114.96 1320.84 115.303 1322.16 116.205L1341.93 129.8" stroke="#E6F0FF" stroke-width="8" stroke-linecap="round" stroke-linejoin="round"/>
<path d="M1355.53 110.021L1335.75 96.4265C1334.44 95.5251 1333.54 94.1397 1333.25 92.5751C1332.96 91.0104 1333.3 89.3946 1334.2 88.0833L1347.8 68.305C1348.7 66.9937 1350.09 66.0941 1351.65 65.8042C1353.22 65.5143 1354.83 65.8578 1356.14 66.7592L1375.92 80.3542" stroke="#E6F0FF" stroke-width="8" stroke-linecap="round" stroke-linejoin="round"/>
<path d="M1307.01 127.64L1287.24 114.045C1285.93 113.143 1285.03 111.758 1284.74 110.193C1284.45 108.629 1284.79 107.013 1285.69 105.701L1312.88 66.145C1313.78 64.8337 1315.17 63.9341 1316.73 63.6442C1318.3 63.3543 1319.91 63.6978 1321.22 64.5992L1341 78.1941" stroke="#E6F0FF" stroke-width="8" stroke-linecap="round" stroke-linejoin="round"/>
<path d="M1299.29 85.9232L1274.56 68.9296" stroke="#E6F0FF" stroke-width="8" stroke-linecap="round" stroke-linejoin="round"/>
</g>
<g clip-path="url(#clip5)">
<path d="M1187.33 359.767C1190.13 351.134 1194.72 343.19 1200.81 336.453C1206.89 329.716 1214.32 324.338 1222.63 320.672C1230.93 317.006 1239.91 315.133 1248.99 315.176C1258.07 315.219 1267.03 317.178 1275.3 320.923L1257.71 375.078L1311.87 392.647C1310.1 401.235 1306.6 409.372 1301.58 416.561C1296.56 423.75 1290.12 429.839 1282.67 434.458C1275.22 439.076 1266.9 442.126 1258.23 443.422C1249.56 444.718 1240.71 444.232 1232.23 441.993C1223.75 439.755 1215.82 435.812 1208.92 430.404C1202.02 424.996 1196.29 418.238 1192.09 410.543C1187.88 402.847 1185.3 394.375 1184.48 385.645C1183.66 376.915 1184.63 368.11 1187.33 359.767V359.767Z" stroke="#E6F0FF" stroke-width="8" stroke-linecap="round" stroke-linejoin="round"/>
<path d="M1234.09 358.963C1237.62 357.165 1239.02 352.849 1237.22 349.322C1235.43 345.796 1231.11 344.395 1227.58 346.193C1224.06 347.991 1222.66 352.307 1224.45 355.833C1226.25 359.36 1230.57 360.761 1234.09 358.963Z" fill="#E6F0FF" stroke="#E6F0FF" stroke-width="8" stroke-linecap="round" stroke-linejoin="round"/>
</g>
<line x1="1316.09" y1="340.569" x2="1434.27" y2="280.304" stroke="#E6F0FF" stroke-width="8" stroke-linecap="round" stroke-dasharray="1 32"/>
<path d="M749.054 111.335L688.507 190.226" stroke="#E6F0FF" stroke-width="8" stroke-linecap="round" stroke-linejoin="round"/>
<path d="M695.541 153.838L721.838 174.02" stroke="#E6F0FF" stroke-width="8" stroke-linecap="round" stroke-linejoin="round"/>
<path d="M715.723 127.541L742.02 147.723" stroke="#E6F0FF" stroke-width="8" stroke-linecap="round" stroke-linejoin="round"/>
<path d="M686.058 261.473C684.031 246.064 675.966 232.092 663.637 222.629C651.308 213.167 635.725 208.99 620.317 211.017" stroke="#E6F0FF" stroke-width="8" stroke-linecap="round" stroke-linejoin="round"/>
<path d="M751.502 40.088C668.072 51.0632 609.341 127.587 620.317 211.017C622.344 226.426 630.409 240.398 642.738 249.86C655.067 259.323 670.65 263.5 686.058 261.473C769.489 250.498 828.219 173.974 817.244 90.5441C815.217 75.1353 807.152 61.1628 794.823 51.7005C782.494 42.2381 766.911 38.061 751.502 40.088" stroke="#E6F0FF" stroke-width="8" stroke-linecap="round" stroke-linejoin="round"/>
<path d="M751.502 40.088C753.529 55.4968 761.595 69.4693 773.924 78.9316C786.253 88.394 801.835 92.5711 817.244 90.5441" stroke="#E6F0FF" stroke-width="8" stroke-linecap="round" stroke-linejoin="round"/>
<path d="M171.5 499.875C198.217 499.875 219.875 478.217 219.875 451.5C219.875 424.783 198.217 403.125 171.5 403.125C144.783 403.125 123.125 424.783 123.125 451.5C123.125 478.217 144.783 499.875 171.5 499.875Z" stroke="#E6F0FF" stroke-width="5" stroke-linecap="round" stroke-linejoin="round"/>
<path d="M137.369 417.369L205.631 485.631" stroke="#E6F0FF" stroke-width="5" stroke-linecap="round" stroke-linejoin="round"/>
<path d="M137.369 485.631L205.631 417.369" stroke="#E6F0FF" stroke-width="5" stroke-linecap="round" stroke-linejoin="round"/>
<path d="M171.5 403.125C171.5 415.955 176.597 428.259 185.669 437.331C194.741 446.403 207.045 451.5 219.875 451.5" stroke="#E6F0FF" stroke-width="5" stroke-linecap="round" stroke-linejoin="round"/>
<path d="M123.125 451.5C135.955 451.5 148.259 456.597 157.331 465.669C166.403 474.741 171.5 487.045 171.5 499.875" stroke="#E6F0FF" stroke-width="5" stroke-linecap="round" stroke-linejoin="round"/>
</g>
<defs>
<clipPath id="clip0">
<rect width="1440" height="642" fill="white"/>
</clipPath>
<clipPath id="clip1">
<rect width="344" height="344" fill="white" transform="translate(89.6545 -66) rotate(24.5)"/>
</clipPath>
<clipPath id="clip2">
<rect width="150" height="150" fill="white" transform="translate(797.876 333) rotate(13.0523)"/>
</clipPath>
<clipPath id="clip3">
<rect width="167" height="167" fill="white" transform="translate(955 74.9218) rotate(-13.125)"/>
</clipPath>
<clipPath id="clip4">
<rect width="144" height="144" fill="white" transform="translate(1332.67 196.239) rotate(-145.497)"/>
</clipPath>
<clipPath id="clip5">
<rect width="172" height="172" fill="white" transform="translate(1133 342.132) rotate(-27.0169)"/>
</clipPath>
</defs>
</svg>
