<svg width="24" height="25" viewBox="0 0 24 25" fill="none" xmlns="http://www.w3.org/2000/svg">
<path d="M14 11.5H13V7.5H15C15.2652 7.5 15.5196 7.60536 15.7071 7.79289C15.8946 7.98043 16 8.23478 16 8.5C16 8.76522 16.1054 9.01957 16.2929 9.20711C16.4804 9.39464 16.7348 9.5 17 9.5C17.2652 9.5 17.5196 9.39464 17.7071 9.20711C17.8946 9.01957 18 8.76522 18 8.5C18 7.70435 17.6839 6.94129 17.1213 6.37868C16.5587 5.81607 15.7956 5.5 15 5.5H13V3.5C13 3.23478 12.8946 2.98043 12.7071 2.79289C12.5196 2.60536 12.2652 2.5 12 2.5C11.7348 2.5 11.4804 2.60536 11.2929 2.79289C11.1054 2.98043 11 3.23478 11 3.5V5.5H10C8.93913 5.5 7.92172 5.92143 7.17157 6.67157C6.42143 7.42172 6 8.43913 6 9.5C6 10.5609 6.42143 11.5783 7.17157 12.3284C7.92172 13.0786 8.93913 13.5 10 13.5H11V17.5H9C8.73478 17.5 8.48043 17.3946 8.29289 17.2071C8.10536 17.0196 8 16.7652 8 16.5C8 16.2348 7.89464 15.9804 7.70711 15.7929C7.51957 15.6054 7.26522 15.5 7 15.5C6.73478 15.5 6.48043 15.6054 6.29289 15.7929C6.10536 15.9804 6 16.2348 6 16.5C6 17.2956 6.31607 18.0587 6.87868 18.6213C7.44129 19.1839 8.20435 19.5 9 19.5H11V21.5C11 21.7652 11.1054 22.0196 11.2929 22.2071C11.4804 22.3946 11.7348 22.5 12 22.5C12.2652 22.5 12.5196 22.3946 12.7071 22.2071C12.8946 22.0196 13 21.7652 13 21.5V19.5H14C15.0609 19.5 16.0783 19.0786 16.8284 18.3284C17.5786 17.5783 18 16.5609 18 15.5C18 14.4391 17.5786 13.4217 16.8284 12.6716C16.0783 11.9214 15.0609 11.5 14 11.5ZM11 11.5H10C9.46957 11.5 8.96086 11.2893 8.58579 10.9142C8.21071 10.5391 8 10.0304 8 9.5C8 8.96957 8.21071 8.46086 8.58579 8.08579C8.96086 7.71071 9.46957 7.5 10 7.5H11V11.5ZM14 17.5H13V13.5H14C14.5304 13.5 15.0391 13.7107 15.4142 14.0858C15.7893 14.4609 16 14.9696 16 15.5C16 16.0304 15.7893 16.5391 15.4142 16.9142C15.0391 17.2893 14.5304 17.5 14 17.5Z" fill="white"/>
</svg>
